HIERARCHY
ROOT Pelvis
{
	OFFSET 0.000000 0.000000 0.000000
	CHANNELS 6 Xposition Yposition Zposition Xrotation Yrotation Zrotation
	JOINT LeftUpLeg_virtual
	{
		OFFSET 0.000000 0.000000 0.000000
		CHANNELS 3 Xrotation Yrotation Zrotation
		JOINT LeftUpLeg
		{
			OFFSET 8.479700 -4.795502 -0.379100
			CHANNELS 3 Xrotation Yrotation Zrotation
			JOINT LeftLeg
			{
				OFFSET 0.024144 -32.555107 0.112900
				CHANNELS 3 Xrotation Yrotation Zrotation
				JOINT LeftFoot
				{
					OFFSET -0.024144 -32.638630 -3.012600
					CHANNELS 3 Xrotation Yrotation Zrotation
					JOINT LeftToeBase
					{
						OFFSET 0.970200 -13.225400 11.864200
						CHANNELS 3 Xrotation Yrotation Zrotation
						End Site
						{
							OFFSET 0 0 0
						}
					}
				}
			}
		}
	}
	JOINT RightUpLeg_virtual
	{
		OFFSET 0.000000 0.000000 0.000000
		CHANNELS 3 Xrotation Yrotation Zrotation
		JOINT RightUpLeg
		{
			OFFSET -8.479700 -4.795502 -0.379100
			CHANNELS 3 Xrotation Yrotation Zrotation
			JOINT RightLeg
			{
				OFFSET -0.023144 -32.555092 0.112900
				CHANNELS 3 Xrotation Yrotation Zrotation
				JOINT RightFoot
				{
					OFFSET 0.023144 -32.638641 -3.012700
					CHANNELS 3 Xrotation Yrotation Zrotation
					JOINT RightToeBase
					{
						OFFSET -0.970200 -13.225400 11.864200
						CHANNELS 3 Xrotation Yrotation Zrotation
						End Site
						{
							OFFSET 0 0 0
						}
					}
				}
			}
		}
	}
	JOINT Hips_virtual
	{
		OFFSET 0.000000 0.000000 0.000000
		CHANNELS 3 Xrotation Yrotation Zrotation
		JOINT Hips
		{
			OFFSET -0.000000 -0.000000 -0.000000
			CHANNELS 3 Xrotation Yrotation Zrotation
			JOINT Spine
			{
				OFFSET 0.000000 7.722000 1.166200
				CHANNELS 3 Xrotation Yrotation Zrotation
				JOINT Spine1
				{
					OFFSET 0.000000 12.024101 0.248800
					CHANNELS 3 Xrotation Yrotation Zrotation
					JOINT Spine2
					{
						OFFSET 0.000000 11.502998 -0.491200
						CHANNELS 3 Xrotation Yrotation Zrotation
						JOINT Neck_virtual
						{
							OFFSET 0.000000 0.000000 0.000000
							CHANNELS 3 Xrotation Yrotation Zrotation
							JOINT Neck
							{
								OFFSET 0.000000 18.430702 -3.123100
								CHANNELS 3 Xrotation Yrotation Zrotation
								JOINT Head
								{
									OFFSET 0.000000 9.051102 1.034000
									CHANNELS 3 Xrotation Yrotation Zrotation
									End Site
									{
										OFFSET 0 0 0
									}
								}
							}
						}
						JOINT LeftShoulder_virtual
						{
							OFFSET 0.000000 0.000000 0.000000
							CHANNELS 3 Xrotation Yrotation Zrotation
							JOINT LeftShoulder
							{
								OFFSET 6.197800 13.665199 -4.064700
								CHANNELS 3 Xrotation Yrotation Zrotation
								JOINT LeftArm
								{
									OFFSET 7.778100 -0.187103 -1.709300
									CHANNELS 3 Xrotation Yrotation Zrotation
									JOINT LeftForeArm
									{
										OFFSET 22.049376 0.000000 0.000000
										CHANNELS 3 Xrotation Yrotation Zrotation
										JOINT LeftHand
										{
											OFFSET 23.009392 0.000000 0.000000
											CHANNELS 3 Xrotation Yrotation Zrotation
											End Site
											{
												OFFSET 0 0 0
											}
										}
									}
								}
							}
						}
						JOINT RightShoulder_virtual
						{
							OFFSET 0.000000 0.000000 0.000000
							CHANNELS 3 Xrotation Yrotation Zrotation
							JOINT RightShoulder
							{
								OFFSET -6.197800 13.665199 -4.064700
								CHANNELS 3 Xrotation Yrotation Zrotation
								JOINT RightArm
								{
									OFFSET -7.778100 -0.187103 -1.709300
									CHANNELS 3 Xrotation Yrotation Zrotation
									JOINT RightForeArm
									{
										OFFSET -22.049376 0.000000 0.000000
										CHANNELS 3 Xrotation Yrotation Zrotation
										JOINT RightHand
										{
											OFFSET -23.009392 0.000000 0.000000
											CHANNELS 3 Xrotation Yrotation Zrotation
											End Site
											{
												OFFSET 0 0 0
											}
										}
									}
								}
							}
						}
					}
				}
			}
		}
	}
}
MOTION
Frames: 4
Frame Time: 0.03333333
0.270672 67.976288 -0.326279 0.000000 0.000000 0.000000 -4.311174 -74.798986 -3.442308 -41.525259 13.103843 48.299792 39.086762 -0.283423 -7.069217 7.825008 -1.794615 -19.911074 0.000000 0.000000 0.000000 -4.311174 -74.798986 -3.442308 -40.684438 -0.893147 -24.761736 61.723750 9.494074 -7.107919 -19.057319 -4.860929 20.603184 0.000000 0.000000 0.000000 -4.311174 -74.798986 -3.442308 0.000000 0.000002 0.000000 2.954206 -0.391588 -1.413350 5.893827 -0.904737 -3.151097 0.000000 0.000000 0.000000 5.893816 -0.904604 -3.151105 -2.451544 24.309816 7.456969 0.000000 0.000000 0.000000 5.893816 -0.904604 -3.151105 0.279785 -7.010229 -19.556611 -39.504055 -20.309105 -2.427267 -5.614212 -32.071556 -2.800589 0.000000 0.000000 0.000000 5.893816 -0.904604 -3.151105 0.636237 13.855929 9.110356 35.455249 67.114409 -18.850870 0.649610 83.885317 -11.766897 0.000000 0.000000 0.000000 
0.270692 67.976120 -0.326143 0.000000 0.000000 0.000000 -4.311182 -74.798986 -3.442415 -41.364616 12.941981 48.173655 39.114120 -0.070631 -7.051372 7.808766 -1.790455 -20.002130 0.000000 0.000000 0.000000 -4.311182 -74.798986 -3.442415 -40.668644 -0.866127 -24.741918 61.719515 9.460428 -7.110232 -19.057712 -4.866355 20.623121 0.000000 0.000000 0.000000 -4.311182 -74.798986 -3.442415 0.000000 -0.000001 0.000000 2.954206 -0.391566 -1.413251 5.893828 -0.904735 -3.151098 0.000000 0.000000 0.000000 5.893815 -0.904604 -3.151105 -2.481197 24.333324 7.459437 0.000000 0.000000 0.000000 5.893815 -0.904604 -3.151105 0.279788 -7.010234 -19.556606 -39.570021 -20.279824 -2.378968 -5.525905 -32.234176 -2.805741 0.000000 0.000000 0.000000 5.893815 -0.904604 -3.151105 0.636226 13.855916 9.110391 35.361020 66.921572 -19.125233 1.039638 84.331232 -12.064339 0.000000 0.000000 0.000000 
0.290017 68.129753 -0.321939 0.000000 0.000000 0.000000 -5.308850 -75.227171 -4.445656 -40.614822 13.176473 48.105060 38.660933 0.475536 -6.938624 7.924157 -1.808658 -20.211821 0.000000 0.000000 0.000000 -5.308850 -75.227171 -4.445656 -40.420260 -0.946058 -24.597576 61.262255 9.778761 -7.058154 -18.765120 -4.754354 20.421675 0.000000 0.000000 0.000000 -5.308850 -75.227171 -4.445656 0.000000 0.000002 0.000000 2.901531 -0.356989 -1.368504 5.790269 -0.823355 -3.057951 0.000000 0.000000 0.000000 5.790280 -0.823174 -3.058011 -2.569100 24.400584 7.466814 0.000000 0.000000 0.000000 5.790280 -0.823174 -3.058011 0.268779 -7.020031 -19.607416 -39.486877 -20.023347 -2.512440 -5.275119 -32.657163 -2.924883 0.000000 0.000000 0.000000 5.790280 -0.823174 -3.058011 0.634737 13.830889 9.149997 35.145063 66.734835 -18.516972 1.797472 83.924010 -12.613808 0.000000 0.000000 0.000000 
0.317931 68.313797 -0.331085 0.000000 0.000000 0.000000 -6.743690 -75.818692 -5.888868 -39.677621 13.533021 48.087769 38.074821 1.136984 -6.810424 8.086707 -1.835837 -20.466991 0.000000 0.000000 0.000000 -6.743690 -75.818692 -5.888868 -40.125958 -1.010175 -24.371573 60.722383 10.191620 -6.993637 -18.397376 -4.610731 20.150795 0.000000 0.000000 0.000000 -6.743690 -75.818692 -5.888868 0.000000 -0.000001 0.000000 2.821900 -0.308196 -1.315628 5.633338 -0.706282 -2.949007 0.000000 0.000000 0.000000 5.633327 -0.706348 -2.949010 -2.701127 24.509331 7.478633 0.000000 0.000000 0.000000 5.633327 -0.706348 -2.949010 0.235410 -7.052425 -19.747772 -38.990896 -19.413549 -3.073290 -4.884501 -33.341312 -3.229801 0.000000 0.000000 0.000000 5.633327 -0.706348 -2.949010 0.630146 13.759756 9.265012 34.557936 66.432073 -17.348050 2.853613 83.375402 -13.339022 0.000000 0.000000 0.000000 
